<svg width="1024" height="500" viewBox="0 0 1024 500" xmlns="http://www.w3.org/2000/svg">
  <defs>
    <radialGradient id="bg" cx="30%" cy="25%" r="95%">
      <stop offset="0%" stop-color="#1b212c"/>
      <stop offset="100%" stop-color="#0c0f14"/>
    </radialGradient>
  </defs>
  <rect width="1024" height="500" fill="url(#bg)"/>
  <rect x="24" y="24" width="976" height="452" fill="none" stroke="#c9a55c" stroke-width="3"/>
  <rect x="32" y="32" width="960" height="436" fill="none" stroke="#c9a55c" stroke-width="1.5" opacity="0.7"/>

  <g transform="translate(60 118) scale(0.94)">
    <path d="M140 36 C140 14 108 0 54 0 C22 0 0 9 0 18 L0 162 C0 153 22 144 54 144 C108 144 140 158 140 178 Z"
          fill="none" stroke="#c9a55c" stroke-width="16" stroke-linejoin="round" stroke-linecap="round"/>
    <path d="M140 36 C140 14 172 0 226 0 C258 0 280 9 280 18 L280 162 C280 153 258 144 226 144 C172 144 140 158 140 178 Z"
          fill="none" stroke="#c9a55c" stroke-width="16" stroke-linejoin="round" stroke-linecap="round"/>
    <circle cx="140" cy="42" r="42" fill="#c9a55c"/>
    <path d="M118 26 Q140 42 118 58 M162 26 Q140 42 162 58" stroke="#1b212c" stroke-width="6" fill="none" stroke-linecap="round"/>
  </g>

  <text x="400" y="180" font-family="Georgia, 'Times New Roman', serif" font-weight="bold" font-size="60" fill="#e8e2d4" letter-spacing="2">BOOK CRICKET</text>
  <text x="400" y="244" font-family="Georgia, 'Times New Roman', serif" font-weight="bold" font-size="38" fill="#c9a55c" letter-spacing="12">TIME MACHINE</text>
  <text x="400" y="300" font-family="Georgia, 'Times New Roman', serif" font-style="italic" font-size="25" fill="#e8e2d4" opacity="0.75">The schoolyard classic, revived.</text>

  <g font-family="Arial, sans-serif" font-weight="bold" font-size="17" letter-spacing="0.5">
    <rect x="400" y="342" rx="18" width="104" height="36" fill="#7d3330"/>
    <text x="452" y="366" fill="#f3e6dc" text-anchor="middle">0 = OUT</text>
    <rect x="516" y="342" rx="18" width="226" height="36" fill="none" stroke="#c9a55c" stroke-width="2"/>
    <text x="629" y="366" fill="#e8e2d4" text-anchor="middle">1–6 = THAT MANY RUNS</text>
    <rect x="754" y="342" rx="18" width="176" height="36" fill="none" stroke="#c9a55c" stroke-width="2"/>
    <text x="842" y="366" fill="#e8e2d4" text-anchor="middle">7·8·9 = A SINGLE</text>
  </g>
</svg>
